HIERARCHY
ROOT root
{
	OFFSET 0.000000 0.000000 0.000000
	CHANNELS 6 Xposition Yposition Zposition Zrotation Yrotation Xrotation
	JOINT lhip
	{
		OFFSET 0.058581 -0.082280 -0.017664
		CHANNELS 3 Zrotation Yrotation Xrotation
		JOINT lknee
		{
			OFFSET 0.043451 -0.386469 0.008037
			CHANNELS 3 Zrotation Yrotation Xrotation
			JOINT lankle
			{
				OFFSET -0.014790 -0.426874 -0.037428
				CHANNELS 3 Zrotation Yrotation Xrotation
				JOINT ltoe
				{
					OFFSET 0.041054 -0.060286 0.122042
					CHANNELS 3 Zrotation Yrotation Xrotation
					End Site
					{
						OFFSET 0.000000 0.000000 0.000000
					}
				}
			}
		}
	}
	JOINT rhip
	{
		OFFSET -0.060310 -0.090513 -0.013543
		CHANNELS 3 Zrotation Yrotation Xrotation
		JOINT rknee
		{
			OFFSET -0.043257 -0.383688 -0.004843
			CHANNELS 3 Zrotation Yrotation Xrotation
			JOINT rankle
			{
				OFFSET 0.019056 -0.420046 -0.034562
				CHANNELS 3 Zrotation Yrotation Xrotation
				JOINT rtoe
				{
					OFFSET -0.034840 -0.062106 0.130323
					CHANNELS 3 Zrotation Yrotation Xrotation
					End Site
					{
						OFFSET 0.000000 0.000000 0.000000
					}
				}
			}
		}
	}
	JOINT lowerback
	{
		OFFSET 0.004439 0.124404 -0.038385
		CHANNELS 3 Zrotation Yrotation Xrotation
		JOINT upperback
		{
			OFFSET 0.004488 0.137956 0.026820
			CHANNELS 3 Zrotation Yrotation Xrotation
			JOINT chest
			{
				OFFSET -0.002265 0.056032 0.002855
				CHANNELS 3 Zrotation Yrotation Xrotation
				JOINT lowerneck
				{
					OFFSET -0.013390 0.211636 -0.033468
					CHANNELS 3 Zrotation Yrotation Xrotation
					JOINT upperneck
					{
						OFFSET 0.010113 0.088937 0.050410
						CHANNELS 3 Zrotation Yrotation Xrotation
						End Site
						{
							OFFSET 0.000000 0.000000 0.000000
						}
					}
				}
				JOINT lclavicle
				{
					OFFSET 0.071702 0.114000 -0.018898
					CHANNELS 3 Zrotation Yrotation Xrotation
					JOINT lshoulder
					{
						OFFSET 0.122921 0.045205 -0.019046
						CHANNELS 3 Zrotation Yrotation Xrotation
						JOINT lelbow
						{
							OFFSET 0.255332 -0.015649 -0.022946
							CHANNELS 3 Zrotation Yrotation Xrotation
							JOINT lwrist
							{
								OFFSET 0.265709 0.012698 -0.007375
								CHANNELS 3 Zrotation Yrotation Xrotation
								End Site
								{
									OFFSET 0.000000 0.000000 0.000000
								}
							}
						}
					}
				}
				JOINT rclavicle
				{
					OFFSET -0.082954 0.112472 -0.023707
					CHANNELS 3 Zrotation Yrotation Xrotation
					JOINT rshoulder
					{
						OFFSET -0.113228 0.046853 -0.008472
						CHANNELS 3 Zrotation Yrotation Xrotation
						JOINT relbow
						{
							OFFSET -0.260127 -0.014369 -0.031269
							CHANNELS 3 Zrotation Yrotation Xrotation
							JOINT rwrist
							{
								OFFSET -0.269108 0.006794 -0.006027
								CHANNELS 3 Zrotation Yrotation Xrotation
								End Site
								{
									OFFSET 0.000000 0.000000 0.000000
								}
							}
						}
					}
				}
			}
		}
	}
}
MOTION
Frames: 10
Frame Time: 0.033333
0.014711 0.278758 0.976432 33.169876 -2.277593 91.786292 3.838119 12.034144 4.169916 -0.365824 9.001328 8.095120 0.292648 10.865606 -14.759030 0.000000 -0.000000 0.000000 -8.706513 -0.315993 -14.883663 -2.755533 -1.065057 6.866464 4.357308 -8.632323 0.593354 0.000000 -0.000000 0.000000 3.871199 -2.182866 9.828597 4.818612 -5.468109 6.103667 -0.331326 -3.392264 0.456099 0.272871 -1.917305 -1.748201 -1.341598 -4.404156 23.898328 -28.074126 -12.534028 1.721646 -41.732341 -12.399727 5.774511 4.374567 -22.274918 8.171615 20.009228 -16.227649 23.376305 24.811476 3.993364 5.421041 49.267297 6.894723 18.673070 -150.082223 59.904004 -142.028414 -19.611345 5.916733 -48.382413 
0.013627 0.264330 0.977966 32.031767 -2.337821 92.181878 4.534417 12.371258 4.013604 -0.345683 8.545642 9.630726 -0.549677 10.936693 -13.847876 0.000000 -0.000000 0.000000 -8.213628 -0.592660 -15.096744 -2.279655 -0.332088 7.505220 4.738205 -8.211367 -0.605358 0.000000 -0.000000 0.000000 4.273688 -2.323835 8.848280 5.168387 -5.487007 6.068398 -0.140041 -4.086680 0.382738 0.434787 -1.761036 -0.851361 -1.686142 -2.992097 24.387379 -28.641766 -11.419969 1.804276 -41.002452 -12.108589 5.977167 4.075492 -23.586165 9.669156 19.941748 -15.871669 22.797851 25.254072 2.993476 4.808802 48.510223 7.602973 19.041470 -150.592942 60.932739 -142.663515 -19.128859 6.188174 -50.075616 
0.013799 0.248563 0.980009 31.308277 -2.909205 91.925406 4.699643 11.985699 4.583004 -0.081976 8.402347 11.090603 -1.327821 10.795389 -12.687447 0.000000 -0.000000 0.000000 -8.367515 0.066565 -13.671834 -2.160070 -0.291974 6.995454 4.053573 -8.123166 -1.262432 0.000000 -0.000000 0.000000 4.400450 -2.585262 8.215004 5.238403 -5.748909 6.524120 -0.161509 -4.237865 0.275418 0.623354 -1.550093 -0.439181 -1.535809 -2.559593 24.715267 -28.685578 -11.127100 1.782972 -40.660402 -11.868656 5.625974 3.969854 -24.907917 9.061092 17.828869 -15.363622 23.830985 25.120382 2.647814 4.851993 49.273762 7.511901 19.090686 -149.985523 60.728295 -143.042668 -19.992131 5.939505 -48.871724 
0.012665 0.228263 0.983285 30.029750 -3.607191 91.478297 5.100877 11.566324 4.814185 0.088179 8.178443 13.950870 -3.089481 11.103780 -11.007216 0.000000 -0.000000 0.000000 -8.441401 0.060187 -12.304121 -1.808964 0.293733 7.145927 4.010303 -7.221705 -2.438986 0.000000 -0.000000 0.000000 4.513706 -2.423486 7.927872 5.223857 -6.157271 6.978835 -0.379118 -4.289621 0.055218 1.248521 -1.314338 -0.333621 -1.279517 -2.634683 25.129068 -28.609462 -10.883841 1.903207 -40.437226 -11.298613 5.405140 4.358143 -26.595512 9.584633 17.107642 -15.175526 24.022796 25.216951 2.268464 4.767903 48.939773 6.543135 18.238383 -151.574063 61.066939 -143.238146 -17.350211 7.887974 -50.691358 
0.011525 0.216213 0.985116 29.303916 -3.920751 91.064854 5.398742 11.115572 4.628027 0.142416 7.699712 16.616258 -3.853433 11.355940 -10.230113 0.000000 -0.000000 0.000000 -8.407449 0.173550 -11.303069 -1.567321 0.551953 7.223166 3.876589 -6.846317 -3.130383 0.000000 -0.000000 0.000000 4.758942 -2.493695 7.956968 5.051610 -6.368741 7.238827 -0.663982 -4.296175 0.116411 1.709203 -1.164600 -0.852691 -1.092482 -2.565609 25.692610 -28.529185 -10.574502 1.687598 -40.363292 -11.117349 5.010313 4.785285 -27.396284 8.586361 18.002055 -15.160479 23.524339 24.981584 2.216159 4.603768 49.440269 6.278429 18.270669 -152.334869 61.209916 -143.632395 -17.855640 7.529517 -50.438051 
0.009988 0.199911 0.987258 28.329817 -4.353689 90.523949 5.764357 10.229735 3.832780 0.372675 7.731772 20.951882 -4.199824 11.627515 -8.652427 0.000000 -0.000000 0.000000 -8.409029 0.373142 -9.896177 -1.099294 0.995136 7.173482 3.227722 -6.624544 -4.142073 0.000000 -0.000000 0.000000 5.068553 -2.517319 7.796436 4.662998 -6.698198 7.827571 -1.051927 -4.259356 -0.034020 1.684452 -1.522193 -0.188125 -0.159414 -2.450583 24.476506 -28.745826 -10.472892 1.801766 -39.741362 -10.490766 4.514109 5.427765 -28.445738 7.546267 19.770889 -15.437221 22.843962 24.697142 2.522688 4.881010 49.738372 5.998137 18.117173 -154.019703 61.535158 -144.922248 -19.187364 6.413390 -49.896883 
0.007745 0.184227 0.989138 27.512117 -4.771842 89.957618 6.206915 9.162857 2.154802 0.108317 7.262861 26.540793 -4.276811 12.245711 -6.436498 0.000000 -0.000000 0.000000 -8.403643 0.408671 -8.510450 -0.660037 1.395636 7.183662 2.453098 -6.247712 -5.023613 0.000000 -0.000000 0.000000 5.145356 -2.407457 7.910545 4.427466 -7.083399 7.884592 -1.335690 -4.286219 0.123157 1.727206 -1.492255 0.045430 0.325428 -2.169201 24.283105 -29.044212 -10.596815 2.117252 -38.772846 -10.118297 4.000573 6.112506 -29.232291 5.893046 21.118045 -15.072757 21.971129 24.453118 2.985943 5.255820 49.980436 6.239244 18.436747 -155.457891 62.375478 -146.517869 -21.968431 4.462350 -49.140999 
0.006250 0.168731 0.990728 26.436323 -5.131043 89.142369 6.562276 8.063953 0.574090 -0.374165 6.473972 32.067521 -3.908480 12.797999 -3.326359 0.000000 -0.000000 0.000000 -8.404691 0.348005 -6.901345 -0.157725 2.222985 7.192083 1.697380 -5.686375 -5.842284 0.000000 -0.000000 0.000000 5.076524 -2.071095 8.446494 4.239333 -7.229691 7.946955 -1.423206 -4.331013 0.048146 1.791126 -1.321941 0.213529 0.473331 -1.818723 24.604971 -29.216769 -10.845954 2.210164 -37.825393 -9.752804 3.915249 6.190639 -29.609515 5.462397 22.979514 -15.409261 21.084787 24.127013 3.912839 5.694012 49.869402 6.328114 18.788849 -156.774225 63.529623 -148.123263 -23.986872 3.230350 -49.204229 
0.005140 0.153936 0.992024 25.229726 -5.181320 88.163274 7.100329 7.307934 -0.842928 -0.641833 5.816904 36.895475 -3.582342 12.621208 -1.035381 0.000000 -0.000000 0.000000 -8.069773 0.356236 -5.101510 0.234395 2.924503 7.139116 1.082000 -5.072911 -6.635645 0.000000 -0.000000 0.000000 5.156303 -1.668384 9.205618 4.128429 -7.267111 8.253786 -1.500050 -4.188460 -0.197385 1.964790 -1.053419 0.417948 0.647936 -1.659675 24.783375 -29.237844 -11.482042 2.277711 -36.939500 -9.476094 4.048665 6.271976 -29.911100 5.411781 24.309541 -15.979193 21.359923 23.886751 5.003479 6.072286 49.733438 6.589109 19.148139 -158.176185 64.805884 -149.873167 -26.123886 2.201636 -48.657689 
0.005358 0.136690 0.993114 23.613453 -5.469087 87.255779 7.099453 6.498882 -2.605651 -1.598257 4.195330 40.641249 -2.945805 11.613385 -3.711492 0.000000 -0.000000 0.000000 -7.994515 0.058718 -3.268177 0.495363 3.821402 7.115108 1.055629 -4.112862 -7.804249 0.000000 -0.000000 0.000000 5.028076 -1.036050 10.177019 3.821809 -7.304361 8.003294 -1.488790 -3.854619 -0.145593 2.041279 -0.519126 0.841698 0.800803 -1.228150 24.860012 -29.286118 -12.357316 1.990997 -35.843518 -9.250462 4.355691 5.723234 -29.908818 5.453671 26.224473 -17.161732 22.029127 23.762464 6.396102 6.468516 49.644750 7.365293 19.922088 -161.073130 66.614748 -154.090166 -30.124165 0.973524 -46.219522 
